<svg width="60" height="60" viewBox="0 0 60 60" fill="none" xmlns="http://www.w3.org/2000/svg" xmlns:xlink="http://www.w3.org/1999/xlink">
<path d="M30.008,0L29.993,0C13.451,0 0,13.455 0,30C-0.01,36.319 1.99,42.477 5.711,47.584L1.973,58.729L13.504,55.042C18.395,58.288 24.138,60.013 30.008,60C46.549,60 60,46.541 60,30C60,13.459 46.549,0 30.008,0ZM47.464,42.364C46.74,44.407 43.868,46.102 41.576,46.597C40.009,46.931 37.961,47.197 31.069,44.34C22.253,40.687 16.575,31.729 16.133,31.147C15.709,30.566 12.57,26.404 12.57,22.099C12.57,17.794 14.756,15.697 15.638,14.797C16.361,14.059 17.558,13.721 18.705,13.721C19.076,13.721 19.41,13.74 19.71,13.755C20.591,13.792 21.034,13.845 21.615,15.236C22.339,16.98 24.101,21.285 24.311,21.727C24.525,22.17 24.739,22.77 24.439,23.351C24.158,23.951 23.91,24.217 23.468,24.727C23.025,25.237 22.605,25.627 22.163,26.175C21.758,26.651 21.3,27.161 21.81,28.042C22.32,28.905 24.083,31.781 26.678,34.091C30.026,37.072 32.741,38.025 33.713,38.43C34.436,38.73 35.299,38.659 35.828,38.096C36.499,37.372 37.328,36.172 38.171,34.991C38.771,34.144 39.529,34.039 40.324,34.339C41.134,34.62 45.42,36.739 46.301,37.177C47.183,37.62 47.764,37.83 47.978,38.201C48.188,38.572 48.188,40.316 47.464,42.364Z" fill="#55CD62"/>
<path d="M47.464,42.364C46.74,44.407 43.868,46.102 41.577,46.597C40.009,46.931 37.962,47.197 31.069,44.34C22.253,40.687 16.575,31.729 16.133,31.147C15.709,30.566 12.57,26.404 12.57,22.099C12.57,17.794 14.757,15.697 15.638,14.797C16.362,14.059 17.558,13.721 18.705,13.721C19.077,13.721 19.41,13.74 19.71,13.755C20.592,13.792 21.034,13.845 21.615,15.236C22.339,16.98 24.102,21.285 24.312,21.727C24.525,22.17 24.739,22.77 24.439,23.351C24.158,23.951 23.91,24.217 23.468,24.727C23.025,25.237 22.605,25.627 22.163,26.175C21.758,26.651 21.3,27.161 21.81,28.042C22.32,28.905 24.083,31.781 26.678,34.091C30.027,37.072 32.742,38.025 33.713,38.43C34.437,38.73 35.299,38.659 35.828,38.096C36.499,37.372 37.328,36.172 38.172,34.991C38.772,34.144 39.529,34.039 40.324,34.339C41.134,34.62 45.42,36.739 46.302,37.177C47.183,37.62 47.764,37.83 47.978,38.201C48.188,38.572 48.188,40.316 47.464,42.364Z" fill="#FFFFFF"/>
</svg>
