<svg width="60" height="60" viewBox="0 0 60 60" fill="none" xmlns="http://www.w3.org/2000/svg" xmlns:xlink="http://www.w3.org/1999/xlink">
<path d="M30,60C46.569,60 60,46.569 60,30C60,13.431 46.569,0 30,0C13.431,0 0,13.431 0,30C0,46.569 13.431,60 30,60Z" fill="#4169E1"/>
<path d="M48.443,43.282C47.512,43.396 42.959,43.282 42.723,43.282C41.546,43.295 40.41,42.905 39.563,42.194C38.603,41.391 37.744,40.505 36.806,39.664C36.529,39.409 36.228,39.173 35.908,38.959C35.159,38.456 34.417,38.57 34.064,39.338C33.789,40.169 33.596,41.019 33.49,41.878C33.428,42.656 32.861,43.143 31.857,43.197C31.235,43.225 30.613,43.235 29.999,43.222C27.759,43.21 25.555,42.736 23.566,41.84C21.414,40.797 19.539,39.371 18.064,37.656C15.638,34.961 13.7,32.001 11.969,28.949C11.878,28.797 10.103,25.514 10.06,25.359C9.9,24.84 10.06,24.344 10.551,24.173C10.863,24.068 16.711,24.173 16.809,24.173C17.244,24.17 17.669,24.287 18.022,24.507C18.375,24.728 18.638,25.041 18.773,25.4C19.854,27.807 21.334,30.064 23.166,32.099C23.422,32.371 23.722,32.609 24.057,32.807C24.533,33.089 24.984,32.991 25.18,32.513C25.413,31.85 25.55,31.165 25.588,30.473C25.62,29.1 25.588,28.196 25.5,26.826C25.442,25.947 25.086,25.175 23.595,24.929C23.137,24.859 23.097,24.53 23.391,24.201C24.006,23.518 24.846,23.411 25.788,23.369C27.191,23.3 28.595,23.347 29.999,23.369L30.304,23.369C30.915,23.368 31.525,23.422 32.122,23.531C32.476,23.593 32.797,23.753 33.037,23.986C33.278,24.22 33.425,24.515 33.457,24.828C33.529,25.174 33.559,25.526 33.548,25.878C33.512,27.377 33.428,28.873 33.41,30.372C33.393,30.965 33.455,31.559 33.595,32.14C33.795,32.937 34.424,33.136 35.05,32.561C35.86,31.816 36.603,31.019 37.272,30.176C38.455,28.639 39.431,26.989 40.181,25.258C40.588,24.369 40.908,24.173 41.999,24.173L48.203,24.173C48.572,24.167 48.94,24.21 49.294,24.299C49.419,24.328 49.537,24.379 49.638,24.449C49.74,24.519 49.824,24.606 49.885,24.706C49.946,24.805 49.983,24.914 49.994,25.027C50.004,25.139 49.987,25.252 49.945,25.359C49.639,26.542 48.905,27.551 48.127,28.522C46.865,30.078 45.534,31.593 44.243,33.124C44.08,33.327 43.93,33.538 43.796,33.756C43.308,34.518 43.345,34.945 44.05,35.581C45.177,36.587 46.381,37.532 47.468,38.57C48.267,39.324 48.987,40.138 49.621,41.002C50.418,42.074 49.927,43.099 48.443,43.282Z" fill="#FFFFFF"/>
</svg>
