<svg width="42" height="42" viewBox="0 0 42 42" fill="none" xmlns="http://www.w3.org/2000/svg" xmlns:xlink="http://www.w3.org/1999/xlink">
<path d="M5.176,7.199C5.093,7.252 5.016,7.314 4.947,7.384L1.077,11.278C0.538,11.822 0.233,12.557 0.229,13.325C0.224,14.093 0.521,14.832 1.053,15.381L1.078,15.408L1.198,15.541L1.658,16.041C2.057,16.473 2.63,17.096 3.338,17.853C5.148,19.794 6.979,21.716 8.829,23.619C13.042,27.945 18.102,32.896 21.117,34.935C24.512,37.242 27.598,38.542 29.85,39.266C30.978,39.627 31.896,39.847 32.543,39.975C32.864,40.039 33.187,40.093 33.512,40.137L33.558,40.142C34.456,40.286 35.25,40.311 35.956,40.163C36.651,40.025 37.289,39.68 37.787,39.174L38.718,38.237C38.787,38.167 38.847,38.091 38.899,38.011C39.318,37.628 39.654,37.16 39.883,36.639C40.112,36.117 40.23,35.553 40.229,34.983C40.073,33.253 38.451,32.253 37.014,31.37C36.292,31.009 35.646,30.509 35.115,29.898L34.058,27.414L34.067,27.414C34.438,27.414 34.793,27.266 35.055,27.002C35.317,26.739 35.464,26.381 35.464,26.009C35.464,25.636 35.317,25.279 35.055,25.015C34.793,24.752 34.438,24.604 34.067,24.604L32.861,24.604L32.005,22.591C32.307,22.47 32.558,22.247 32.714,21.96C32.871,21.673 32.923,21.34 32.861,21.019C32.8,20.698 32.629,20.408 32.378,20.2C32.127,19.992 31.811,19.879 31.486,19.879L30.85,19.879L30.143,18.219C30.508,18.203 30.853,18.043 31.102,17.774C31.352,17.506 31.487,17.149 31.478,16.781C31.47,16.413 31.318,16.064 31.056,15.807C30.794,15.551 30.442,15.408 30.076,15.409L28.947,15.409L28.401,14.125C28.318,13.924 28.268,13.779 28.225,13.656C28.048,13.072 27.717,12.546 27.268,12.135L26.576,11.437C26.258,11.129 25.872,10.899 25.45,10.766L25.45,10.163C24.619,7.641 21.587,6.761 19.553,8.296L16.723,5.392C16.978,5.134 17.179,4.828 17.315,4.491C17.452,4.154 17.52,3.793 17.518,3.429C17.515,3.066 17.441,2.706 17.3,2.371C17.159,2.036 16.953,1.733 16.695,1.478C15.919,0.7 14.868,0.263 13.773,0.263C12.677,0.263 11.626,0.7 10.85,1.478L5.176,7.199ZM17.759,19.485L17.763,18.488C17.763,16.212 16.885,14.044 15.316,12.425L9.584,6.542L12.73,3.373C12.871,3.23 13.041,3.119 13.228,3.048C13.415,2.977 13.615,2.946 13.815,2.959C14.015,2.972 14.209,3.027 14.386,3.122C14.563,3.216 14.718,3.347 14.84,3.507C14.33,4.022 14.044,4.72 14.044,5.447C14.044,6.174 14.33,6.872 14.84,7.388L20.731,13.332C21.264,13.849 21.974,14.137 22.713,14.137C23.452,14.137 24.162,13.849 24.694,13.332L25.386,14.028C25.548,14.156 25.663,14.335 25.712,14.536L25.716,14.549C25.773,14.715 25.843,14.916 25.955,15.177L26.054,15.409L24.798,15.409C24.027,15.409 23.402,16.038 23.402,16.815C23.406,17.186 23.554,17.541 23.815,17.804C24.076,18.067 24.429,18.216 24.798,18.22L27.25,18.22L27.957,19.879L26.913,19.879C26.141,19.879 25.516,20.508 25.516,21.285C25.52,21.656 25.668,22.011 25.93,22.274C26.191,22.537 26.544,22.686 26.913,22.69L29.154,22.69L29.967,24.604L28.668,24.604C27.897,24.604 27.272,25.233 27.272,26.009C27.272,26.397 27.431,26.745 27.684,26.999C27.937,27.253 28.282,27.401 28.668,27.414L31.164,27.414L32.671,30.955C33.367,32.132 34.399,33.07 35.633,33.648L35.637,33.65C36.306,34.061 37.549,34.824 37.582,35.206C37.582,35.28 37.509,35.509 37.177,35.884C34.904,35.598 32.673,35.04 30.531,34.222C26.619,32.707 22.575,30.016 21.065,25.254L21.064,25.251C20.525,23.565 19.311,21.602 17.904,19.68C17.856,19.615 17.808,19.55 17.759,19.485ZM2.955,13.51C2.922,13.47 2.904,13.419 2.904,13.367C2.904,13.314 2.922,13.263 2.955,13.223L5.927,10.23C7.721,12 9.464,13.82 11.154,15.691C12.759,17.47 14.407,19.418 15.762,21.267C17.137,23.145 18.13,24.816 18.53,26.068C18.592,26.263 18.658,26.457 18.727,26.65L2.958,13.513L2.955,13.51Z" transform="rotate(-84.068 20.229 20.263)" fill="#FFFFFF"/>
</svg>
