<svg width="38" height="36" viewBox="0 0 38 36" fill="none" xmlns="http://www.w3.org/2000/svg" xmlns:xlink="http://www.w3.org/1999/xlink">
<path d="M18.2,0C18.807,0 19.361,0.343 19.632,0.886L24.511,10.67L35.427,12.236C36.032,12.323 36.535,12.747 36.723,13.328C36.91,13.91 36.75,14.548 36.31,14.972L28.409,22.583L30.272,33.326C30.375,33.926 30.13,34.533 29.639,34.892C29.147,35.251 28.495,35.3 27.955,35.018L18.211,29.936L8.443,35.019C7.904,35.3 7.251,35.25 6.76,34.891C6.269,34.532 6.024,33.926 6.128,33.326L7.99,22.583L0.09,14.972C-0.35,14.548 -0.51,13.91 -0.323,13.328C-0.135,12.747 0.368,12.323 0.973,12.236L11.889,10.67L16.768,0.886C17.039,0.343 17.593,0 18.2,0ZM18.2,5.185L14.378,12.849C14.144,13.319 13.694,13.644 13.174,13.719L4.668,14.939L10.822,20.867C11.204,21.236 11.379,21.77 11.288,22.293L9.833,30.688L17.473,26.713C17.937,26.472 18.489,26.472 18.952,26.714L26.566,30.685L25.111,22.293C25.021,21.77 25.195,21.236 25.578,20.867L31.732,14.939L23.226,13.719C22.706,13.644 22.256,13.319 22.022,12.849L18.2,5.185Z" clip-rule="evenodd" fill-rule="evenodd" fill="#FFFFFF"/>
</svg>
