<svg width="42" height="42" viewBox="0 0 42 42" fill="none" xmlns="http://www.w3.org/2000/svg" xmlns:xlink="http://www.w3.org/1999/xlink">
<path d="M5.189,7.159C5.106,7.212 5.029,7.274 4.96,7.344L1.093,11.234C0.555,11.777 0.25,12.511 0.246,13.279C0.241,14.046 0.537,14.784 1.069,15.333L1.095,15.36L1.214,15.492L1.674,15.992C2.073,16.424 2.645,17.045 3.352,17.802C5.161,19.741 6.99,21.661 8.839,23.562C13.048,27.884 18.104,32.829 21.116,34.866C24.509,37.171 27.591,38.469 29.842,39.192C30.969,39.553 31.886,39.773 32.533,39.901C32.854,39.965 33.176,40.019 33.5,40.063L33.547,40.068C34.444,40.211 35.237,40.237 35.943,40.088C36.637,39.951 37.274,39.606 37.772,39.1L38.702,38.164C38.771,38.095 38.831,38.019 38.883,37.938C39.302,37.556 39.637,37.089 39.866,36.568C40.095,36.047 40.213,35.484 40.212,34.914C40.056,33.186 38.435,32.187 37,31.305C36.278,30.945 35.633,30.445 35.103,29.834L34.046,27.353L34.056,27.353C34.426,27.353 34.781,27.205 35.042,26.942C35.304,26.679 35.451,26.322 35.451,25.949C35.451,25.577 35.304,25.22 35.042,24.957C34.781,24.693 34.426,24.545 34.056,24.545L32.851,24.545L31.995,22.535C32.297,22.414 32.548,22.191 32.704,21.905C32.86,21.618 32.912,21.286 32.85,20.965C32.789,20.644 32.618,20.354 32.367,20.146C32.117,19.939 31.802,19.825 31.477,19.826L30.841,19.826L30.135,18.167C30.5,18.151 30.844,17.992 31.093,17.723C31.343,17.455 31.477,17.099 31.469,16.731C31.46,16.364 31.309,16.015 31.047,15.758C30.785,15.502 30.433,15.359 30.068,15.361L28.94,15.361L28.394,14.078C28.312,13.877 28.261,13.733 28.219,13.61C28.041,13.026 27.711,12.5 27.262,12.09L26.571,11.393C26.252,11.085 25.867,10.855 25.445,10.722L25.445,10.12C24.615,7.6 21.585,6.722 19.554,8.255L16.726,5.354C16.98,5.096 17.181,4.79 17.318,4.454C17.454,4.117 17.523,3.757 17.52,3.393C17.517,3.03 17.444,2.671 17.303,2.336C17.161,2.002 16.956,1.698 16.698,1.444C15.923,0.667 14.873,0.23 13.778,0.23C12.684,0.23 11.634,0.667 10.858,1.444L5.189,7.159ZM17.761,19.432L17.765,18.436C17.765,16.163 16.888,13.997 15.32,12.38L9.593,6.503L12.736,3.337C12.877,3.194 13.047,3.084 13.234,3.013C13.421,2.941 13.621,2.911 13.82,2.924C14.02,2.936 14.215,2.992 14.391,3.086C14.568,3.18 14.722,3.311 14.845,3.471C14.335,3.986 14.05,4.683 14.05,5.409C14.05,6.136 14.335,6.833 14.845,7.348L20.731,13.286C21.263,13.802 21.972,14.09 22.711,14.09C23.449,14.09 24.159,13.802 24.691,13.286L25.382,13.981C25.544,14.109 25.658,14.287 25.707,14.488L25.711,14.501C25.768,14.667 25.839,14.868 25.95,15.128L26.049,15.361L24.794,15.361C24.024,15.361 23.399,15.989 23.399,16.765C23.403,17.136 23.551,17.491 23.812,17.753C24.073,18.016 24.425,18.165 24.794,18.168L27.245,18.168L27.95,19.826L26.907,19.826C26.136,19.826 25.512,20.455 25.512,21.23C25.516,21.601 25.664,21.956 25.925,22.218C26.186,22.481 26.538,22.63 26.907,22.634L29.146,22.634L29.959,24.545L28.661,24.545C27.89,24.545 27.266,25.174 27.266,25.949C27.266,26.337 27.425,26.685 27.678,26.939C27.93,27.193 28.276,27.34 28.661,27.353L31.155,27.353L32.661,30.89C33.356,32.066 34.387,33.003 35.62,33.58L35.624,33.583C36.292,33.993 37.534,34.755 37.568,35.136C37.568,35.211 37.495,35.44 37.162,35.814C34.891,35.529 32.662,34.971 30.523,34.154C26.613,32.64 22.573,29.952 21.065,25.195L21.063,25.193C20.525,23.508 19.312,21.547 17.906,19.627C17.858,19.562 17.81,19.497 17.761,19.432ZM2.97,13.464C2.937,13.423 2.919,13.373 2.919,13.32C2.919,13.268 2.937,13.217 2.97,13.177L5.939,10.187C7.732,11.955 9.473,13.774 11.161,15.642C12.765,17.42 14.411,19.365 15.765,21.213C17.139,23.088 18.132,24.758 18.532,26.008C18.593,26.203 18.659,26.397 18.729,26.59L2.972,13.467L2.97,13.464Z" transform="rotate(-83.96 20.229 20.209)" fill="#FFFFFF"/>
</svg>
