<svg width="104" height="104" viewBox="0 0 104 104" fill="none" xmlns="http://www.w3.org/2000/svg" xmlns:xlink="http://www.w3.org/1999/xlink">
<path d="M18,7.111C22.553,2.558 28.728,0 35.167,0C41.606,0 47.781,2.558 52.334,7.111C56.887,11.664 59.444,17.839 59.444,24.278C59.444,30.717 56.887,36.892 52.334,41.445C47.781,45.998 41.606,48.556 35.167,48.556C28.728,48.556 22.553,45.998 18,41.445C13.447,36.892 10.889,30.717 10.889,24.278C10.889,17.839 13.447,11.664 18,7.111ZM35.167,5C30.054,5 25.151,7.031 21.535,10.646C17.92,14.262 15.889,19.165 15.889,24.278C15.889,29.391 17.92,34.294 21.535,37.909C25.151,41.525 30.054,43.556 35.167,43.556C40.279,43.556 45.183,41.525 48.798,37.909C52.413,34.294 54.444,29.391 54.444,24.278C54.444,19.165 52.413,14.262 48.798,10.646C45.183,7.031 40.279,5 35.167,5ZM70.856,2.588C71.198,1.25 72.56,0.443 73.898,0.786C79.12,2.123 83.749,5.16 87.054,9.419C90.36,13.677 92.154,18.914 92.154,24.305C92.154,29.696 90.36,34.933 87.054,39.191C83.749,43.45 79.12,46.487 73.898,47.824C72.56,48.167 71.198,47.36 70.856,46.022C70.513,44.685 71.32,43.323 72.658,42.98C76.804,41.919 80.48,39.507 83.104,36.126C85.729,32.744 87.154,28.585 87.154,24.305C87.154,20.025 85.729,15.866 83.104,12.484C80.48,9.103 76.804,6.691 72.658,5.63C71.32,5.287 70.513,3.925 70.856,2.588ZM24.278,70.333C19.165,70.333 14.262,72.364 10.646,75.98C7.031,79.595 5,84.498 5,89.611L5,100.5C5,101.881 3.881,103 2.5,103C1.119,103 0,101.881 0,100.5L0,89.611C0,83.172 2.558,76.997 7.111,72.444C11.664,67.891 17.839,65.333 24.278,65.333L46.056,65.333C52.494,65.333 58.67,67.891 63.223,72.444C67.776,76.997 70.333,83.172 70.333,89.611L70.333,100.5C70.333,101.881 69.214,103 67.833,103C66.453,103 65.333,101.881 65.333,100.5L65.333,89.611C65.333,84.498 63.302,79.595 59.687,75.98C56.072,72.364 51.168,70.333 46.056,70.333L24.278,70.333ZM81.746,68.025C82.091,66.688 83.455,65.884 84.792,66.229C89.98,67.569 94.579,70.587 97.873,74.814C101.166,79.041 102.969,84.238 103,89.597L103,89.611L103,100.5C103,101.881 101.881,103 100.5,103C99.119,103 98,101.881 98,100.5L98,89.618C97.974,85.366 96.543,81.241 93.929,77.887C91.314,74.531 87.661,72.134 83.542,71.071C82.205,70.725 81.401,69.362 81.746,68.025Z" clip-rule="evenodd" fill-rule="evenodd" fill="#020202"/>
</svg>
