<svg width="104" height="104" viewBox="0 0 104 104" fill="none" xmlns="http://www.w3.org/2000/svg" xmlns:xlink="http://www.w3.org/1999/xlink">
<path d="M44.83,0.321C45.591,-0.107 46.52,-0.107 47.281,0.321L90.837,24.821C91.624,25.264 92.111,26.097 92.111,27L92.111,51.5C92.111,52.881 90.992,54 89.611,54C88.23,54 87.111,52.881 87.111,51.5L87.111,31.275L48.556,52.962L48.556,100.5C48.556,101.388 48.084,102.21 47.318,102.658C46.551,103.106 45.604,103.114 44.83,102.679L1.274,78.179C0.487,77.736 0,76.903 0,76L0,27C0,26.097 0.487,25.264 1.274,24.821L44.83,0.321ZM46.056,48.632L84.512,27L46.056,5.368L7.599,27L46.056,48.632ZM5,31.275L5,74.538L43.556,96.225L43.556,52.962L5,31.275ZM82.399,66.066C83.375,65.089 84.958,65.089 85.934,66.066L102.268,82.399C103.244,83.375 103.244,84.958 102.268,85.934L85.934,102.268C84.958,103.244 83.375,103.244 82.399,102.268C81.423,101.291 81.423,99.709 82.399,98.732L94.464,86.667L62.389,86.667C61.008,86.667 59.889,85.547 59.889,84.167C59.889,82.786 61.008,81.667 62.389,81.667L94.464,81.667L82.399,69.601C81.423,68.625 81.423,67.042 82.399,66.066Z" clip-rule="evenodd" fill-rule="evenodd" fill="#020202"/>
</svg>
