<svg width="28" height="16" viewBox="0 0 28 16" fill="none" xmlns="http://www.w3.org/2000/svg" xmlns:xlink="http://www.w3.org/1999/xlink">
<path d="M0.586,12.586C-0.195,13.367 -0.195,14.633 0.586,15.414C1.367,16.195 2.633,16.195 3.414,15.414L0.586,12.586ZM14,2L15.414,0.586C14.633,-0.195 13.367,-0.195 12.586,0.586L14,2ZM24.586,15.414C25.367,16.195 26.633,16.195 27.414,15.414C28.195,14.633 28.195,13.367 27.414,12.586L24.586,15.414ZM3.414,15.414L15.414,3.414L12.586,0.586L0.586,12.586L3.414,15.414ZM12.586,3.414L24.586,15.414L27.414,12.586L15.414,0.586L12.586,3.414Z" transform="rotate(-180 14 8)" fill="#020202"/>
</svg>
