<svg width="104" height="104" viewBox="0 0 104 104" fill="none" xmlns="http://www.w3.org/2000/svg" xmlns:xlink="http://www.w3.org/1999/xlink">
<path d="M8.625,5.5C7.664,5.5 6.742,5.882 6.062,6.562C5.382,7.242 5,8.164 5,9.125L5,25L24.5,25L24.5,5.5L8.625,5.5ZM8.625,0.5C6.338,0.5 4.144,1.409 2.526,3.026C0.909,4.644 0,6.837 0,9.125L0,94.875C0,97.162 0.909,99.356 2.526,100.974C4.144,102.591 6.338,103.5 8.625,103.5L94.375,103.5C96.662,103.5 98.856,102.591 100.474,100.974C102.091,99.356 103,97.162 103,94.875L103,9.125C103,6.838 102.091,4.644 100.474,3.026C98.856,1.409 96.662,0.5 94.375,0.5L8.625,0.5ZM29.5,5.5L29.5,25L98,25L98,9.125C98,8.164 97.618,7.242 96.938,6.562C96.258,5.882 95.336,5.5 94.375,5.5L29.5,5.5ZM98,30L5,30L5,94.875C5,95.836 5.382,96.758 6.062,97.438C6.742,98.118 7.664,98.5 8.625,98.5L94.375,98.5C95.336,98.5 96.258,98.118 96.938,97.438C97.618,96.758 98,95.836 98,94.875L98,30ZM65.518,56.357C66.494,57.334 66.494,58.916 65.518,59.893L47.143,78.268C46.166,79.244 44.584,79.244 43.607,78.268L34.42,69.08C33.443,68.104 33.443,66.521 34.42,65.545C35.396,64.568 36.979,64.568 37.955,65.545L45.375,72.964L61.982,56.357C62.959,55.381 64.541,55.381 65.518,56.357Z" clip-rule="evenodd" fill-rule="evenodd" fill="#020202"/>
</svg>
