<svg width="36" height="36" viewBox="0 0 36 36" fill="none" xmlns="http://www.w3.org/2000/svg" xmlns:xlink="http://www.w3.org/1999/xlink">
<path d="M10.606,1.258C12.612,0.427 14.762,0 16.933,0C19.104,0 21.254,0.427 23.26,1.258C25.266,2.089 27.089,3.307 28.624,4.842C30.159,6.377 31.377,8.2 32.208,10.206C33.039,12.212 33.467,14.362 33.467,16.533C33.467,18.704 33.039,20.854 32.208,22.86C31.582,24.371 30.736,25.779 29.701,27.038L35.131,32.468C35.756,33.093 35.756,34.106 35.131,34.731C34.507,35.356 33.493,35.356 32.869,34.731L27.438,29.3C26.179,30.336 24.772,31.182 23.26,31.808C21.254,32.639 19.104,33.066 16.933,33.066C14.762,33.066 12.612,32.639 10.606,31.808C8.6,30.977 6.778,29.759 5.242,28.224C3.707,26.689 2.489,24.866 1.658,22.86C0.828,20.854 0.4,18.704 0.4,16.533C0.4,14.362 0.828,12.212 1.658,10.206C2.489,8.2 3.707,6.377 5.242,4.842C6.778,3.307 8.6,2.089 10.606,1.258ZM16.933,3.2C15.182,3.2 13.448,3.544 11.831,4.215C10.213,4.885 8.743,5.867 7.505,7.105C6.267,8.343 5.285,9.813 4.615,11.43C3.945,13.048 3.6,14.782 3.6,16.533C3.6,18.284 3.945,20.018 4.615,21.635C5.285,23.253 6.267,24.723 7.505,25.961C8.743,27.199 10.213,28.181 11.831,28.851C13.448,29.521 15.182,29.866 16.933,29.866C18.684,29.866 20.418,29.521 22.036,28.851C23.653,28.181 25.123,27.199 26.361,25.961C27.6,24.723 28.582,23.253 29.252,21.635C29.922,20.018 30.267,18.284 30.267,16.533C30.267,14.782 29.922,13.048 29.252,11.43C28.582,9.813 27.6,8.343 26.361,7.105C25.123,5.867 23.653,4.885 22.036,4.215C20.418,3.544 18.684,3.2 16.933,3.2Z" clip-rule="evenodd" fill-rule="evenodd" fill="#FFFFFF"/>
</svg>
