<svg width="42" height="40" viewBox="0 0 42 40" fill="none" xmlns="http://www.w3.org/2000/svg" xmlns:xlink="http://www.w3.org/1999/xlink">
<path d="M21.013,31.849L21.757,30.433C21.292,30.188 20.736,30.188 20.271,30.432L21.013,31.849ZM9.27,38L7.693,37.728C7.59,38.328 7.836,38.935 8.328,39.293C8.82,39.652 9.473,39.7 10.012,39.417L9.27,38ZM11.513,24.973L13.09,25.244C13.18,24.723 13.007,24.192 12.627,23.824L11.513,24.973ZM2,15.748L1.771,14.164C1.168,14.251 0.666,14.674 0.478,15.254C0.29,15.835 0.448,16.472 0.886,16.896L2,15.748ZM15.128,13.852L15.357,15.436C15.878,15.361 16.328,15.034 16.562,14.562L15.128,13.852ZM21,2L22.434,1.29C22.164,0.745 21.608,0.4 21,0.4C20.392,0.4 19.836,0.745 19.566,1.29L21,2ZM26.872,13.852L25.438,14.562C25.672,15.034 26.122,15.361 26.643,15.436L26.872,13.852ZM40,15.748L41.114,16.896C41.552,16.472 41.71,15.835 41.522,15.254C41.334,14.674 40.832,14.251 40.229,14.164L40,15.748ZM30.487,24.973L29.373,23.824C28.993,24.192 28.82,24.723 28.91,25.244L30.487,24.973ZM32.73,38L31.986,39.417C32.525,39.7 33.179,39.652 33.671,39.294C34.164,38.936 34.41,38.329 34.307,37.728L32.73,38ZM20.271,30.432L8.528,36.583L10.012,39.417L21.756,33.267L20.271,30.432ZM10.847,38.272L13.09,25.244L9.937,24.701L7.693,37.728L10.847,38.272ZM12.627,23.824L3.114,14.599L0.886,16.896L10.399,26.121L12.627,23.824ZM2.229,17.331L15.357,15.436L14.9,12.269L1.771,14.164L2.229,17.331ZM16.562,14.562L22.434,2.71L19.566,1.29L13.695,13.142L16.562,14.562ZM19.566,2.71L25.438,14.562L28.305,13.142L22.434,1.29L19.566,2.71ZM26.643,15.436L39.771,17.331L40.229,14.164L27.1,12.269L26.643,15.436ZM38.886,14.599L29.373,23.824L31.601,26.121L41.114,16.896L38.886,14.599ZM28.91,25.244L31.153,38.272L34.307,37.728L32.063,24.701L28.91,25.244ZM33.474,36.583L21.757,30.433L20.27,33.266L31.986,39.417L33.474,36.583Z" fill="#020202"/>
</svg>
