<svg width="20" height="12" viewBox="0 0 20 12" fill="none" xmlns="http://www.w3.org/2000/svg" xmlns:xlink="http://www.w3.org/1999/xlink">
<path d="M0.869,8.869C0.244,9.493 0.244,10.507 0.869,11.131C1.493,11.756 2.507,11.756 3.131,11.131L0.869,8.869ZM10,2L11.131,0.869C10.507,0.244 9.493,0.244 8.869,0.869L10,2ZM16.869,11.131C17.493,11.756 18.507,11.756 19.131,11.131C19.756,10.507 19.756,9.493 19.131,8.869L16.869,11.131ZM3.131,11.131L11.131,3.131L8.869,0.869L0.869,8.869L3.131,11.131ZM8.869,3.131L16.869,11.131L19.131,8.869L11.131,0.869L8.869,3.131Z" transform="rotate(-180 10 6)" fill="#020202"/>
</svg>
