<svg width="26" height="36" viewBox="0 0 26 36" fill="none" xmlns="http://www.w3.org/2000/svg" xmlns:xlink="http://www.w3.org/1999/xlink">
<path d="M7.101,2.534C8.78,0.906 11.046,0 13.4,0C15.754,0 18.02,0.906 19.699,2.534C21.38,4.163 22.333,6.384 22.333,8.711C22.333,11.037 21.38,13.258 19.699,14.888C18.02,16.516 15.754,17.422 13.4,17.422C11.046,17.422 8.78,16.516 7.101,14.888C5.42,13.258 4.467,11.037 4.467,8.711C4.467,6.384 5.42,4.163 7.101,2.534ZM13.4,3.2C11.864,3.2 10.4,3.792 9.328,4.831C8.258,5.869 7.667,7.265 7.667,8.711C7.667,10.156 8.258,11.553 9.328,12.59C10.4,13.63 11.864,14.222 13.4,14.222C14.936,14.222 16.4,13.63 17.472,12.59C18.542,11.553 19.133,10.156 19.133,8.711C19.133,7.265 18.542,5.869 17.472,4.831C16.4,3.792 14.936,3.2 13.4,3.2ZM9.733,24.533C8.197,24.533 6.733,25.125 5.662,26.164C4.592,27.202 4,28.599 4,30.044L4,33.6C4,34.483 3.284,35.2 2.4,35.2C1.516,35.2 0.8,34.483 0.8,33.6L0.8,30.044C0.8,27.718 1.754,25.497 3.434,23.867C5.113,22.239 7.38,21.333 9.733,21.333L17.067,21.333C19.42,21.333 21.687,22.239 23.366,23.867C25.046,25.497 26,27.718 26,30.044L26,33.6C26,34.483 25.284,35.2 24.4,35.2C23.516,35.2 22.8,34.483 22.8,33.6L22.8,30.044C22.8,28.599 22.208,27.202 21.138,26.164C20.067,25.125 18.603,24.533 17.067,24.533L9.733,24.533Z" clip-rule="evenodd" fill-rule="evenodd" fill="#FFFFFF"/>
</svg>
