<svg width="76" height="72" viewBox="0 0 76 72" fill="none" xmlns="http://www.w3.org/2000/svg" xmlns:xlink="http://www.w3.org/1999/xlink">
<path d="M7.6,0C3.42,0 0,3.411 0,7.579L0,53.053L11.4,41.684L45.6,41.684C49.78,41.684 53.2,38.274 53.2,34.105L53.2,7.579C53.2,3.411 49.78,0 45.6,0L7.6,0ZM60.8,18.947L60.8,34.105C60.8,42.465 53.983,49.263 45.6,49.263L22.8,49.263L22.8,53.053C22.8,57.221 26.22,60.632 30.4,60.632L64.6,60.632L76,72L76,26.526C76,22.358 72.58,18.947 68.4,18.947L60.8,18.947Z" fill="#FD7900"/>
</svg>
