<svg width="34" height="40" viewBox="0 0 34 40" fill="none" xmlns="http://www.w3.org/2000/svg" xmlns:xlink="http://www.w3.org/1999/xlink">
<path d="M16.599,3.2C15.479,3.2 14.397,3.654 13.594,4.476C12.79,5.298 12.332,6.421 12.332,7.6L12.332,10L20.866,10L20.866,7.6C20.866,6.421 20.408,5.298 19.604,4.476C18.801,3.654 17.719,3.2 16.599,3.2ZM24.066,10L24.066,7.6C24.066,5.595 23.288,3.666 21.892,2.238C20.494,0.809 18.591,0 16.599,0C14.607,0 12.704,0.809 11.306,2.238C9.91,3.666 9.132,5.595 9.132,7.6L9.132,10L5.512,10M9.132,13.2L5.512,13.2C5.184,13.2 4.859,13.272 4.559,13.413C4.258,13.554 3.988,13.762 3.769,14.023C3.549,14.285 3.386,14.594 3.291,14.931C3.197,15.268 3.175,15.622 3.228,15.969C3.228,15.97 3.228,15.969 3.228,15.969L5.682,32.273C5.84,33.321 6.358,34.27 7.134,34.951C7.908,35.63 8.89,36 9.899,36C9.899,36 9.899,36 9.899,36L23.299,36C24.309,36 25.291,35.631 26.066,34.951C26.842,34.27 27.36,33.322 27.518,32.274L29.972,15.97C30.025,15.623 30.003,15.268 29.908,14.931C29.814,14.594 29.651,14.285 29.431,14.023C29.212,13.762 28.942,13.554 28.641,13.413C28.341,13.272 28.016,13.2 27.688,13.2L24.066,13.2L24.066,17.6C24.066,18.483 23.35,19.2 22.466,19.2C21.583,19.2 20.866,18.483 20.866,17.6L20.866,13.2L12.332,13.2L12.332,17.6C12.332,18.483 11.615,19.2 10.732,19.2C9.848,19.2 9.132,18.483 9.132,17.6L9.132,13.2ZM24.066,10L27.688,10C27.688,10 27.688,10 27.688,10C28.488,10 29.278,10.176 30.002,10.517C30.727,10.857 31.368,11.353 31.883,11.966C32.398,12.58 32.775,13.298 32.99,14.07C33.206,14.842 33.256,15.653 33.137,16.446L30.682,32.75C30.682,32.75 30.682,32.749 30.682,32.75C30.414,34.535 29.528,36.171 28.176,37.357C26.823,38.543 25.094,39.2 23.299,39.2C23.299,39.2 23.3,39.2 23.299,39.2L9.899,39.2C8.105,39.2 6.375,38.542 5.023,37.356C3.672,36.17 2.786,34.535 2.518,32.75C2.518,32.75 2.518,32.75 2.518,32.75L0.063,16.446C-0.056,15.653 -0.006,14.842 0.209,14.07C0.425,13.298 0.802,12.58 1.317,11.966C1.832,11.353 2.473,10.857 3.198,10.517C3.922,10.176 4.712,10 5.512,10Z" clip-rule="evenodd" fill-rule="evenodd" fill="#FFFFFF"/>
</svg>
